<svg width="220" height="220" xmlns="http://www.w3.org/2000/svg">
 <!-- Created with Method Draw - http://github.com/duopixel/Method-Draw/ -->
 <g>
  <title>background</title>
  <rect fill="#fff" id="canvas_background" height="222" width="222" y="-1" x="-1"/>
 </g>
 <g>
  <title>Layer 1</title>
  <path id="svg_2" d="m25.93407,149.89011l16.04396,-2.63736c0.21978,0 7.69231,-16.48352 8.35165,-18.24176c0.65934,-1.75824 9.23077,-10.54945 10.10989,-11.20879c0.87912,-0.65934 28.35165,-10.98901 33.18681,-11.42857c4.83516,-0.43956 27.91209,4.17582 29.01099,4.3956c1.0989,0.21978 10.98901,7.25275 12.08791,10.76923c1.0989,3.51648 2.41758,13.40659 1.75824,17.36264c-0.65934,3.95604 -1.97802,15.16484 -3.2967,17.8022c-1.31868,2.63736 -20,13.18681 -21.31868,13.18681c-1.31868,0 -11.42857,8.13187 -11.42857,8.57143c0,0.43956 5.49451,8.57143 5.71429,8.57143c0.21978,0 28.57143,-5.05495 28.35165,-5.05495c0.21978,0 13.18681,-10.76923 14.06593,-11.64835c0.87912,-0.87912 24.3956,-24.61538 24.3956,-24.61538c0,0 18.9011,-32.08791 19.12088,-33.84615c0.21978,-1.75824 1.97802,-18.68132 1.53846,-19.78022c-0.43956,-1.0989 -7.03297,-17.58242 -10.10989,-19.56044c-3.07692,-1.97802 -15.16484,-6.37363 -18.24176,-5.93407c-3.07692,0.43956 -7.25275,1.0989 -7.47253,0.65934c-0.21978,-0.43956 -2.85714,-13.40659 -2.85714,-13.84615c0,-0.43956 -4.83516,-10.32967 -5.49451,-11.42857c-0.65934,-1.0989 -28.13187,-9.67033 -29.23077,-9.67033c-1.0989,0 -22.63736,-0.21978 -23.73626,0.65934c-1.0989,0.87912 -29.45055,8.79121 -29.45055,8.79121c0,0 -22.63736,12.96703 -23.2967,13.40659c-0.65934,0.43956 -7.69231,15.6044 -7.69231,15.82418c0,0.21978 0.87912,23.51648 1.0989,24.3956c0.21978,0.87912 -2.41758,14.72527 -2.41758,15.16484c0,0.43956 -6.37363,8.35165 -7.03297,9.45055c-0.65934,1.0989 -3.73626,21.53846 -3.95604,21.53846" fill-opacity="null" stroke-opacity="null" stroke-width="0" stroke="#000"/>
 </g>
</svg>