<svg xmlns="http://www.w3.org/2000/svg" viewBox="0 0 360 450"><defs/>
<path fill="#fff" d="M-1-1h362v452H-1z"/><g><path d="M94.444 436.333L88 363.556c.222.333-41.556-4.112-45.556-5.89-4-1.777-26.222-38.666-26.222-39.555 0-.889-1.778-102.222-1.778-102.667 0-.444 16-68 15.778-68.333.222.333 56.222-9.889 56-10.222.222.333 23.334-89.445 23.111-89.778.223.333 39.334-31.667 39.111-32 .223.333 62.89 2.111 63.334 2.111.444 0 52 5.778 52.889 7.556.889 1.778 27.555 24.889 28 25.778.444.888 15.555 28.888 20 35.11 4.444 6.223 20 24.445 20 29.778 0 5.334.444 38.667-1.334 45.778-1.777 7.111-2.222 35.111-1.777 42.667.444 7.555 5.333 67.111 5.333 68.889 0 1.778-4.445 50.666-6.222 55.11-1.778 4.445-10.223 59.112-10.667 60.89-.444 1.778-9.333 40.889-9.778 40.889-.444 0-40.889 6.666-40.889 6.222 0-.445-27.555-7.111-29.333-8.889-1.778-1.778-6.222-34.667-6.444-35 .222.333 6-27.667 5.777-28 .223.333-49.11-5.889-49.333-6.222.222.333-2.444 62.11-2.667 61.778.223.333-5.11 25.666-5.333 25.333.222.333-44.667 3.444-44.889 3.111.222.333-34.889-3.222-35.111-3.556"/></g>
</svg>